<svg width="248" height="40" viewBox="0 0 248 40" fill="none" xmlns="http://www.w3.org/2000/svg">
<g clip-path="url(#clip0_874_154)">
<path d="M34.604 1.53891C35.4633 0.622265 36.6304 0.1073 37.8457 0.1073C43.3134 0.1073 48.4662 0.107303 53.5405 0.107313C63.7464 0.107335 68.8571 13.2694 61.6404 20.9672L45.9208 37.7349C45.1992 38.5048 43.9652 37.9595 43.9652 36.8709V22.1025L45.7818 20.1647C47.2251 18.6251 46.203 15.9927 44.1617 15.9927H21.0537L34.604 1.53891Z" fill="#3A04FF"/>
<path d="M30.4147 36.5564C29.5555 37.473 28.3884 37.988 27.1731 37.988C21.7054 37.988 16.5527 37.988 11.4783 37.988C1.27235 37.9879 -3.8383 24.8259 3.37838 17.128L19.098 0.360352C19.8197 -0.409436 21.0536 0.135759 21.0536 1.2244L21.0537 15.9927L19.237 17.9306C17.7937 19.4702 18.8159 22.1026 20.8571 22.1026L43.9652 22.1025L30.4147 36.5564Z" fill="#3A04FF"/>
<path d="M156.185 12.8V31.8427H161.639V12.8H156.185Z" fill="#110051"/>
<path d="M156.565 9.6321C157.21 10.2928 157.997 10.6231 158.93 10.6231C159.862 10.6231 160.645 10.2928 161.277 9.6321C161.922 8.97135 162.244 8.16906 162.244 7.22518C162.244 6.25771 161.922 5.44951 161.277 4.8006C160.645 4.13989 159.862 3.80952 158.93 3.80952C157.997 3.80952 157.21 4.13989 156.565 4.8006C155.92 5.44951 155.598 6.25771 155.598 7.22518C155.598 8.16906 155.92 8.97135 156.565 9.6321Z" fill="#110051"/>
<path fill-rule="evenodd" clip-rule="evenodd" d="M164.717 39.2757V12.8H169.895V14.6936H169.963C170.289 14.3641 170.64 14.0632 171.017 13.791C172.236 12.9179 173.64 12.4814 175.228 12.4814C176.621 12.4814 177.95 12.853 179.216 13.5964C180.493 14.3396 181.529 15.4429 182.323 16.9058C183.116 18.3689 183.501 20.1917 183.479 22.3744C183.49 24.0262 183.265 25.4656 182.806 26.6927C182.345 27.9079 181.724 28.9167 180.942 29.719C180.159 30.5212 179.284 31.123 178.318 31.5241C177.352 31.9252 176.373 32.1258 175.383 32.1258C173.818 32.1258 172.415 31.6775 171.172 30.7809C170.859 30.5521 170.563 30.3044 170.283 30.0375H170.171V39.2757H164.717ZM174.106 27.4536C174.911 27.4418 175.619 27.2236 176.23 26.7989C176.839 26.3741 177.317 25.7724 177.662 24.9937C178.007 24.215 178.174 23.3065 178.162 22.2682C178.174 21.2064 178.002 20.2979 177.645 19.5428C177.3 18.7759 176.811 18.1918 176.178 17.7907C175.545 17.3778 174.82 17.1771 174.003 17.189C173.232 17.1771 172.541 17.3719 171.932 17.773C171.322 18.1742 170.839 18.7582 170.482 19.525C170.125 20.2802 169.947 21.1946 169.947 22.2682C169.947 23.3065 170.125 24.215 170.482 24.9937C170.85 25.7724 171.345 26.3741 171.966 26.7989C172.588 27.2236 173.301 27.4418 174.106 27.4536Z" fill="#110051"/>
<path d="M188.731 31.5418C189.743 31.9311 190.802 32.1258 191.906 32.1258C193.172 32.1258 194.329 31.8722 195.376 31.3649C196.435 30.8575 197.28 30.1496 197.913 29.2411C198.558 28.3209 198.879 27.2648 198.879 26.0732C198.879 25.1293 198.684 24.3329 198.293 23.6841C197.913 23.0351 197.429 22.5042 196.843 22.0912C196.267 21.6783 195.675 21.3538 195.065 21.1179C194.455 20.8701 193.92 20.6813 193.459 20.5515C192.861 20.3746 192.286 20.1917 191.734 20.0029C191.182 19.8142 190.727 19.59 190.37 19.3304C190.013 19.0708 189.835 18.7287 189.835 18.3039C189.835 17.8792 190.013 17.5252 190.37 17.2421C190.727 16.9589 191.175 16.8173 191.717 16.8173C192.361 16.8173 192.89 16.9943 193.304 17.3483C193.731 17.7022 194.052 18.068 194.271 18.4455L198.465 16.5872C197.936 15.3602 197.038 14.375 195.773 13.6317C194.518 12.8885 193.103 12.5168 191.527 12.5168C190.261 12.5168 189.133 12.7587 188.144 13.2424C187.166 13.7261 186.389 14.3987 185.813 15.2599C185.249 16.1094 184.968 17.0946 184.968 18.2154C184.968 19.2773 185.21 20.1799 185.693 20.9232C186.176 21.6665 186.803 22.28 187.574 22.7638C188.356 23.2357 189.185 23.6073 190.06 23.8788C190.44 23.9849 190.854 24.1028 191.303 24.2327C191.762 24.3625 192.2 24.5158 192.614 24.6929C193.028 24.8698 193.368 25.0822 193.632 25.3299C193.897 25.5777 194.03 25.8727 194.03 26.2149C194.03 26.4862 193.938 26.7398 193.753 26.9758C193.581 27.2118 193.339 27.4065 193.028 27.5598C192.717 27.7014 192.355 27.7722 191.941 27.7722C191.159 27.7722 190.48 27.5245 189.904 27.0289C189.329 26.5333 188.898 26.0084 188.61 25.4538L184.329 27.3829C184.72 28.3386 185.301 29.1762 186.072 29.8959C186.843 30.6038 187.729 31.1525 188.731 31.5418Z" fill="#110051"/>
<path d="M221.052 31.8427V12.8H226.247V15.2246H226.341C226.748 14.6452 227.205 14.1556 227.714 13.7556C228.75 12.9297 229.975 12.5168 231.391 12.5168C232.564 12.5168 233.559 12.8117 234.377 13.4017C235.007 13.8414 235.52 14.4313 235.918 15.1714H236.015C236.603 14.4028 237.317 13.801 238.156 13.3663C239.249 12.8 240.44 12.5168 241.729 12.5168C242.96 12.5168 243.974 12.7409 244.767 13.1893C245.561 13.6258 246.182 14.204 246.631 14.9237C247.08 15.6316 247.396 16.4103 247.58 17.2598C247.765 18.0974 247.857 18.9115 247.857 19.7021V31.8427H242.368V20.3923C242.368 19.354 242.155 18.5576 241.729 18.003C241.315 17.4368 240.705 17.1536 239.9 17.1536C239.37 17.1536 238.898 17.2775 238.484 17.5252C238.082 17.7612 237.76 18.121 237.518 18.6048C237.288 19.0886 237.173 19.6844 237.173 20.3923V31.8427H231.718V20.3923C231.718 19.354 231.506 18.5576 231.079 18.003C230.654 17.4368 230.038 17.1536 229.233 17.1536C228.451 17.1536 227.801 17.4309 227.282 17.9854C226.765 18.5281 226.506 19.3422 226.506 20.4277V31.8427H221.052Z" fill="#110051"/>
<path d="M207.704 32.1258C206.427 32.1258 205.265 31.8486 204.218 31.2941C203.171 30.7277 202.336 29.9018 201.715 28.8164C201.106 27.7191 200.8 26.3682 200.8 24.7636V12.8H206.254V24.0203C206.254 25.1175 206.531 25.9552 207.083 26.5333C207.647 27.0997 208.332 27.3829 209.137 27.3829C209.736 27.3829 210.259 27.2471 210.708 26.9758C211.168 26.7045 211.525 26.321 211.778 25.8254C212.043 25.3181 212.175 24.7164 212.175 24.0203V12.8H217.629V25.1707C217.629 25.855 217.727 26.3505 217.922 26.6572C218.118 26.964 218.515 27.2295 219.113 27.4536L217.18 32.1258C215.811 31.7601 214.81 31.2823 214.177 30.6924C213.859 30.3951 213.617 30.053 213.453 29.6659H213.314C212.832 30.1627 212.297 30.6051 211.709 30.9932C210.546 31.7483 209.212 32.1258 207.704 32.1258Z" fill="#110051"/>
<path fill-rule="evenodd" clip-rule="evenodd" d="M144.375 32.1258C142.591 32.1258 140.962 31.707 139.49 30.8693C138.028 30.0316 136.861 28.8753 135.986 27.4006C135.123 25.9257 134.692 24.2268 134.692 22.3036C134.692 20.3805 135.123 18.6815 135.986 17.2067C136.861 15.7319 138.028 14.5815 139.49 13.7556C140.962 12.9297 142.591 12.5168 144.375 12.5168C146.193 12.5168 147.832 12.9297 149.294 13.7556C150.755 14.5815 151.912 15.7319 152.763 17.2067C153.626 18.6815 154.057 20.3805 154.057 22.3036C154.057 24.2268 153.626 25.9257 152.763 27.4006C151.912 28.8753 150.75 30.0316 149.277 30.8693C147.815 31.707 146.182 32.1258 144.375 32.1258ZM144.375 27.3474C145.226 27.3474 145.991 27.1351 146.67 26.7104C147.349 26.2856 147.884 25.6957 148.275 24.9406C148.666 24.1855 148.862 23.3065 148.862 22.3036C148.862 21.3362 148.673 20.4748 148.293 19.7197C147.913 18.9647 147.389 18.3748 146.722 17.95C146.054 17.5134 145.283 17.2951 144.409 17.2951C143.547 17.2951 142.769 17.5075 142.079 17.9323C141.4 18.3452 140.865 18.9292 140.474 19.6844C140.083 20.4394 139.887 21.3126 139.887 22.3036C139.887 23.3065 140.083 24.1855 140.474 24.9406C140.876 25.6957 141.418 26.2856 142.097 26.7104C142.776 27.1351 143.534 27.3474 144.375 27.3474Z" fill="#110051"/>
<path fill-rule="evenodd" clip-rule="evenodd" d="M118.549 38.9749C119.837 39.3642 121.252 39.5589 122.794 39.5589C124.233 39.5589 125.55 39.3701 126.748 38.9926C127.944 38.6269 128.98 38.0723 129.854 37.329C130.74 36.5857 131.424 35.6654 131.908 34.5681C132.391 33.4709 132.633 32.1967 132.633 30.7454V12.7823H127.679V14.6405H127.576C127.246 14.317 126.89 14.022 126.505 13.7556C125.309 12.9179 123.911 12.4991 122.311 12.4991C120.93 12.4991 119.601 12.859 118.324 13.5787C117.047 14.2866 116 15.3485 115.183 16.7643C114.377 18.1683 113.974 19.9321 113.974 22.0559C113.974 23.6487 114.21 25.035 114.682 26.2149C115.154 27.3947 115.781 28.3798 116.564 29.1704C117.358 29.9491 118.237 30.533 119.204 30.9224C120.171 31.3 121.143 31.4888 122.121 31.4888C123.698 31.4888 125.102 31.0463 126.333 30.1614C126.722 29.8777 127.087 29.5651 127.424 29.2234H127.506V31.064C127.506 31.9725 127.219 32.704 126.643 33.2585C126.069 33.8249 125.372 34.2378 124.555 34.4973C123.738 34.757 122.949 34.8867 122.191 34.8867C121.305 34.8867 120.43 34.7392 119.567 34.4443C118.715 34.1611 117.967 33.819 117.324 33.4178L115.528 37.8069C116.265 38.208 117.271 38.5973 118.549 38.9749ZM125.66 26.3033C125.027 26.7281 124.296 26.9404 123.468 26.9404C122.65 26.9404 121.931 26.7281 121.31 26.3033C120.689 25.8668 120.2 25.271 119.843 24.5158C119.487 23.749 119.308 22.87 119.308 21.8789C119.308 20.8878 119.487 20.0265 119.843 19.2951C120.211 18.5635 120.717 18.0031 121.362 17.6137C122.007 17.2126 122.737 17.012 123.554 17.012C124.371 17.012 125.09 17.2067 125.712 17.596C126.333 17.9854 126.822 18.5458 127.178 19.2773C127.535 19.9971 127.714 20.8642 127.714 21.8789C127.714 22.8817 127.53 23.7667 127.162 24.5335C126.793 25.2887 126.292 25.8786 125.66 26.3033Z" fill="#110051"/>
<path fill-rule="evenodd" clip-rule="evenodd" d="M102.906 32.1258C101.123 32.1258 99.4944 31.707 98.0213 30.8693C96.5602 30.0316 95.3917 28.8753 94.5177 27.4006C93.6548 25.9257 93.2229 24.2268 93.2229 22.3036C93.2229 20.3805 93.6548 18.6815 94.5177 17.2067C95.3917 15.7319 96.5602 14.5815 98.0213 13.7556C99.4944 12.9297 101.123 12.5168 102.906 12.5168C104.724 12.5168 106.364 12.9297 107.825 13.7556C109.286 14.5815 110.443 15.7319 111.294 17.2067C112.157 18.6815 112.589 20.3805 112.589 22.3036C112.589 24.2268 112.157 25.9257 111.294 27.4006C110.443 28.8753 109.281 30.0316 107.808 30.8693C106.346 31.707 104.713 32.1258 102.906 32.1258ZM102.906 27.3474C103.758 27.3474 104.522 27.1351 105.201 26.7104C105.88 26.2856 106.415 25.6957 106.807 24.9406C107.198 24.1855 107.393 23.3065 107.393 22.3036C107.393 21.3362 107.204 20.4748 106.824 19.7197C106.444 18.9647 105.921 18.3748 105.253 17.95C104.586 17.5134 103.814 17.2951 102.94 17.2951C102.078 17.2951 101.301 17.5075 100.61 17.9323C99.931 18.3452 99.396 18.9292 99.0049 19.6844C98.6139 20.4394 98.4179 21.3126 98.4179 22.3036C98.4179 23.3065 98.6139 24.1855 99.0049 24.9406C99.408 25.6957 99.9486 26.2856 100.628 26.7104C101.307 27.1351 102.065 27.3474 102.906 27.3474Z" fill="#110051"/>
<path d="M78.4778 5.75627V31.8427H93.3047V26.6749H84.1392V5.75627H78.4778Z" fill="#110051"/>
</g>
<defs>
<clipPath id="clip0_874_154">
<rect width="248" height="40" fill="white"/>
</clipPath>
</defs>
</svg>
