<svg width="234" height="40" viewBox="0 0 234 40" fill="none" xmlns="http://www.w3.org/2000/svg">
<g clip-path="url(#clip0_874_245)">
<path d="M38.166 32.5523L38.169 32.5556L31.8606 38.0941C30.5672 39.2579 28.8948 39.9171 27.1514 39.9496L27.1367 39.9499H5.51864C4.71838 39.9835 3.92092 39.8337 3.188 39.5117C2.44211 39.1842 1.78317 38.6875 1.26424 38.0609C0.745288 37.4344 0.380931 36.696 0.19985 35.9047C0.0221339 35.1268 0.0259904 34.318 0.211968 33.5417L1.87637 25.0617C2.02443 24.3235 2.41574 23.6553 2.98849 23.1635L3.07011 23.0935C2.89293 22.8259 2.76333 22.5294 2.68734 22.217C2.58654 21.8026 2.58302 21.3715 2.67587 20.9569L4.34358 12.4611L4.34615 12.449C4.67071 10.9245 5.48821 9.54812 6.67354 8.53058L12.4492 3.45969C12.7165 3.15424 13.0099 2.86972 13.3272 2.6096C14.5915 1.57334 16.1648 0.983238 17.8013 0.931L17.8285 0.93013L39.4728 0.992126C40.2722 0.958873 41.0687 1.10885 41.8008 1.43034C42.5468 1.75792 43.2057 2.25465 43.7246 2.88113C44.2435 3.50751 44.608 4.24602 44.789 5.03768C44.9669 5.81575 44.9628 6.62399 44.7771 7.39987L40.6428 28.5175L40.6369 28.5431C40.2738 30.1124 39.4058 31.5199 38.166 32.5523Z" fill="#03301D"/>
<path d="M39.135 2.9434C39.7037 2.91468 40.2711 3.01955 40.792 3.24944C41.313 3.47933 41.773 3.82787 42.1353 4.26739C42.4975 4.70689 42.752 5.22505 42.8785 5.78054C43.0048 6.33602 42.9996 6.91344 42.8632 7.46654L38.7467 28.5976C38.4575 29.8531 37.7614 30.9777 36.7667 31.7958C35.772 32.6139 34.5346 33.0798 33.2476 33.1207H11.7096C11.1408 33.1491 10.5733 33.0442 10.0522 32.8143C9.53102 32.5844 9.07074 32.236 8.70793 31.7968C8.34512 31.3575 8.0898 30.8395 7.96232 30.2842C7.83485 29.7288 7.83874 29.1512 7.97365 28.5976L9.63581 20.0488C9.73327 19.6315 9.96587 19.2582 10.2974 18.987C10.6289 18.7157 11.0407 18.5617 11.4688 18.5489C15.399 18.6888 19.1738 18.9841 22.6922 20.2508L23.4689 25.1392C23.4879 25.2573 23.5501 25.364 23.6435 25.4386C23.7368 25.5134 23.8544 25.5507 23.9738 25.5434C24.1108 25.541 24.2448 25.5024 24.3621 25.4314C24.4794 25.3605 24.5759 25.2596 24.6418 25.1392L27.298 20.2508L32.6107 18.5722C32.7392 18.531 32.8549 18.4572 32.9461 18.3577C33.0374 18.2581 33.1012 18.1366 33.1311 18.005C33.1615 17.8885 33.1472 17.7649 33.0911 17.6584C33.0351 17.552 32.9413 17.4705 32.8281 17.4299L28.1679 15.7588L27.3913 10.8706C27.3723 10.7519 27.3103 10.6443 27.2173 10.5684C27.1242 10.4924 27.0064 10.4534 26.8864 10.4587C26.7485 10.4619 26.614 10.5017 26.4966 10.574C26.3792 10.6464 26.2832 10.7488 26.2184 10.8706L23.5621 15.7588C19.7102 16.8644 15.7246 17.4346 11.7174 17.4532C11.525 17.4696 11.3315 17.4399 11.1528 17.3668C10.9741 17.2939 10.8153 17.1795 10.6894 17.0331C10.5635 16.8866 10.4742 16.7123 10.4288 16.5246C10.3834 16.3369 10.3831 16.141 10.428 15.9531L12.0902 7.40431C12.3777 6.14942 13.0724 5.0251 14.0658 4.20686C15.0593 3.38861 16.2955 2.92261 17.5815 2.88135L39.135 2.9434Z" fill="#86EE02"/>
<path d="M171.625 31.1769C167.632 31.1769 164.798 29.5473 163.905 26.4728L169.127 24.1055C169.498 25.366 170.58 25.9501 172.546 25.9501C174.075 25.9501 175.311 25.489 175.483 24.5051C175.701 23.2753 174.485 23.0908 172.631 22.8141C169.56 22.353 165.154 21.1539 166.027 16.2039C166.699 12.3915 170.677 9.4707 175.357 9.4707C179.038 9.4707 181.871 11.1002 182.765 14.1747L177.543 16.5421C177.128 15.5275 176.151 14.6974 174.186 14.6974C172.813 14.6974 171.988 15.1278 171.837 15.9887C171.631 17.157 172.939 17.526 174.943 17.8334C177.982 18.2946 182.145 19.4629 181.267 24.4436C180.595 28.256 176.305 31.1769 171.625 31.1769Z" fill="#03301D"/>
<path d="M203.356 30.6849H209.221L213.834 16.0194L215.001 28.1638C215.16 29.9163 216.568 30.7772 218.284 30.7772C220.031 30.7772 221.655 29.8856 222.511 28.0408L227.962 16.0501L227.068 30.6849H232.902L233.462 13.3446C233.532 10.8235 232.085 9.4707 229.62 9.4707C227.374 9.4707 225.292 10.4853 224.293 12.7912L219.53 23.7058L218.6 12.6989C218.414 10.3931 216.735 9.4707 214.551 9.4707C212.023 9.4707 210.043 10.7928 209.205 13.2524L203.356 30.6849Z" fill="#03301D"/>
<path d="M183.788 21.3076C182.705 27.4567 185.036 31.0539 191.65 31.0539C198.233 31.0539 201.893 27.4567 202.976 21.3076L204.981 9.9319H199.209L197.232 21.1539C196.668 24.3514 195.187 25.6735 192.598 25.6735C190.039 25.6735 189.024 24.3514 189.588 21.1539L191.565 9.9319H185.793L183.788 21.3076Z" fill="#03301D"/>
<path fill-rule="evenodd" clip-rule="evenodd" d="M144.516 30.6849L150.293 30.6541L151.182 25.612H153.802C159.918 25.612 163.901 22.6604 164.779 17.6797C165.629 12.8527 162.494 9.9319 156.254 9.9319H148.173L144.516 30.6849ZM153.023 15.1585H155.488C157.984 15.1585 159.138 16.0501 158.851 17.6797C158.542 19.4322 157.157 20.3853 154.568 20.3853H152.103L153.023 15.1585Z" fill="#03301D"/>
<path d="M138.666 9.9319H144.438L140.78 30.6849H135.008L138.666 9.9319Z" fill="#03301D"/>
<path fill-rule="evenodd" clip-rule="evenodd" d="M112.421 20.3237C111.332 26.5035 115.257 31.146 121.621 31.146C127.986 31.146 133.547 26.5035 134.636 20.3237C135.725 14.144 131.8 9.50143 125.436 9.50143C119.071 9.50143 113.51 14.144 112.421 20.3237ZM128.708 20.3237C128.166 23.3982 125.502 25.7657 122.569 25.7657C119.636 25.7657 117.807 23.3982 118.349 20.3237C118.891 17.2493 121.554 14.8819 124.487 14.8819C127.42 14.8819 129.25 17.2493 128.708 20.3237Z" fill="#03301D"/>
<path d="M100.353 31.146C94.0506 31.146 90.0855 26.3806 91.1529 20.3237C92.2202 14.2669 97.8022 9.50143 104.167 9.50143C107.911 9.50143 111.257 11.4076 112.174 14.8819L107.007 17.4645C106.409 15.8964 105.408 14.8511 102.975 14.8511C100.011 14.8511 97.6394 17.157 97.0646 20.416C96.4632 23.8287 98.0752 26.0116 101.258 26.0116C102.942 26.0116 104.03 25.8579 105.076 25.0585L105.559 22.199L100.159 19.8111H111.562L111.401 20.7849H111.414L111.236 21.7953L111.225 21.862L111.224 21.8624L110.33 26.934C108.275 29.3936 104.596 31.146 100.353 31.146Z" fill="#03301D"/>
<path fill-rule="evenodd" clip-rule="evenodd" d="M68.3001 20.3237C67.2111 26.5035 71.1354 31.146 77.5002 31.146C83.865 31.146 89.4255 26.5035 90.5145 20.3237C91.6035 14.144 87.6792 9.50143 81.3144 9.50143C74.9496 9.50143 69.3891 14.144 68.3001 20.3237ZM84.5865 20.3237C84.0447 23.3982 81.3812 25.7657 78.4484 25.7657C75.5156 25.7657 73.6863 23.3982 74.2281 20.3237C74.7699 17.2493 77.4335 14.8819 80.3663 14.8819C83.2991 14.8819 85.1283 17.2493 84.5865 20.3237Z" fill="#03301D"/>
<path d="M60.8263 9.9319L58.0902 25.4582H67.3878L66.4668 30.6849H56.3892C52.8324 30.6849 51.7223 28.8402 52.237 25.9194L55.0543 9.9319H60.8263Z" fill="#03301D"/>
</g>
<defs>
<clipPath id="clip0_874_245">
<rect width="234" height="40" fill="white"/>
</clipPath>
</defs>
</svg>
