<svg width="186" height="40" viewBox="0 0 186 40" fill="none" xmlns="http://www.w3.org/2000/svg">
<g clip-path="url(#clip0_874_194)">
<path fill-rule="evenodd" clip-rule="evenodd" d="M19.7637 4.567L22.3866 0L29.8226 4.317L27.2007 8.883C26.7402 9.684 27.4295 10.658 28.3326 10.483L33.3576 9.508L34.9839 17.985L29.9589 18.959C21.8306 20.535 15.625 11.775 19.7637 4.567Z" fill="#3A724F"/>
<path fill-rule="evenodd" clip-rule="evenodd" d="M15.2202 35.433L12.5973 40L5.16026 35.684L7.78316 31.117C8.24368 30.316 7.55439 29.342 6.65025 29.517L1.62626 30.491L0 22.015L5.02498 21.041C13.1533 19.465 19.3579 28.225 15.2202 35.433Z" fill="#DC8E43"/>
<path fill-rule="evenodd" clip-rule="evenodd" d="M15.4469 4.567L12.825 0L5.38802 4.317L8.01092 8.883C8.47045 9.684 7.78215 10.658 6.87801 10.483L1.85303 9.508L0.22876 17.985L5.25275 18.959C13.382 20.535 19.5877 11.775 15.4479 4.567H15.4469Z" fill="#14424C"/>
<path fill-rule="evenodd" clip-rule="evenodd" d="M19.545 35.433L22.1659 40L29.6029 35.684L26.98 31.117C26.5205 30.316 27.2088 29.342 28.1129 29.517L33.1369 30.491L34.7631 22.015L29.7382 21.041C21.6099 19.465 15.4052 28.225 19.543 35.433H19.545Z" fill="#C85D1B"/>
<path d="M162.242 30.153V21.653C162.242 20.475 162.511 19.418 163.05 18.483C163.608 17.529 164.399 16.781 165.423 16.238C166.446 15.696 167.665 15.425 169.078 15.425C169.738 15.4185 170.395 15.5033 171.032 15.677C171.627 15.827 172.166 16.042 172.65 16.322C173.152 16.584 173.58 16.902 173.934 17.276H173.99C174.369 16.8967 174.801 16.5752 175.273 16.322C175.791 16.0352 176.345 15.8183 176.92 15.677C177.566 15.5046 178.233 15.4198 178.901 15.425C180.315 15.425 181.533 15.695 182.557 16.238C183.579 16.781 184.37 17.528 184.928 18.483C185.487 19.418 185.765 20.474 185.765 21.653V30.153H181.412V21.793C181.412 21.326 181.291 20.905 181.05 20.531C180.828 20.1398 180.511 19.8116 180.129 19.577C179.725 19.3303 179.261 19.2038 178.789 19.212C178.287 19.212 177.831 19.334 177.422 19.577C177.04 19.8113 176.723 20.1396 176.501 20.531C176.275 20.9124 176.159 21.3493 176.166 21.793V30.153H171.841V21.793C171.841 21.326 171.72 20.905 171.478 20.531C171.251 20.1342 170.924 19.8049 170.529 19.577C170.126 19.3303 169.661 19.2038 169.189 19.212C168.687 19.212 168.232 19.334 167.823 19.577C167.44 19.8113 167.123 20.1396 166.902 20.531C166.677 20.9126 166.561 21.3493 166.567 21.793V30.153H162.242ZM152.782 30.49C151.313 30.49 150.037 30.21 148.959 29.648C147.899 29.068 147.08 28.292 146.503 27.32C145.926 26.329 145.638 25.234 145.638 24.037V15.761H149.964V23.925C149.964 24.43 150.084 24.898 150.326 25.328C150.568 25.739 150.894 26.076 151.303 26.338C151.73 26.581 152.215 26.703 152.754 26.703C153.275 26.703 153.739 26.581 154.149 26.338C154.577 26.076 154.912 25.739 155.154 25.328C155.396 24.898 155.517 24.43 155.517 23.925V15.761H159.842V24.037C159.842 25.234 159.562 26.329 159.004 27.32C158.446 28.292 157.638 29.069 156.577 29.648C155.535 30.209 154.27 30.49 152.782 30.49ZM131.706 30.153V26.703H138.599C138.785 26.703 138.952 26.665 139.101 26.59C139.249 26.497 139.371 26.375 139.463 26.226C139.554 26.0786 139.603 25.9085 139.603 25.735C139.603 25.5615 139.554 25.3914 139.463 25.244C139.376 25.0998 139.251 24.983 139.101 24.907C138.95 24.8131 138.776 24.7645 138.599 24.767H136.087C135.156 24.767 134.31 24.617 133.548 24.318C132.824 24.0166 132.203 23.5096 131.762 22.859C131.334 22.186 131.12 21.316 131.12 20.25C131.12 19.427 131.315 18.679 131.706 18.006C132.113 17.3351 132.678 16.7758 133.352 16.378C134.055 15.9676 134.855 15.7545 135.669 15.761H142.561V19.24H136.338C136.091 19.235 135.851 19.3256 135.669 19.493C135.587 19.5732 135.523 19.6692 135.479 19.7754C135.436 19.8815 135.415 19.9953 135.417 20.11C135.417 20.372 135.502 20.596 135.669 20.783C135.851 20.9504 136.091 21.041 136.338 21.036H138.794C139.835 21.036 140.728 21.195 141.472 21.512C142.235 21.812 142.821 22.298 143.231 22.972C143.659 23.645 143.873 24.514 143.873 25.58C143.873 26.422 143.659 27.189 143.231 27.88C142.825 28.5688 142.248 29.1395 141.556 29.536C140.868 29.948 140.087 30.153 139.213 30.153H131.706ZM122.283 15.425C123.492 15.425 124.561 15.621 125.491 16.014C126.405 16.3642 127.226 16.9208 127.891 17.641C128.57 18.3466 129.093 19.1879 129.426 20.11C129.779 21.045 129.956 22.083 129.956 23.224C129.956 24.645 129.659 25.908 129.063 27.011C128.513 28.0681 127.683 28.9516 126.664 29.564C125.641 30.181 124.45 30.49 123.092 30.49C122.515 30.49 121.966 30.415 121.445 30.266C120.951 30.1201 120.482 29.9025 120.051 29.62C119.644 29.3428 119.294 28.9906 119.018 28.582H118.934V36.242H114.609V23.223C114.609 21.633 114.925 20.258 115.558 19.099C116.171 17.9582 117.102 17.0219 118.236 16.405C119.39 15.751 120.739 15.424 122.283 15.424V15.425ZM122.283 19.184C121.613 19.184 121.027 19.352 120.525 19.689C120.041 20.007 119.669 20.456 119.408 21.036C119.148 21.596 119.018 22.233 119.018 22.943C119.018 23.654 119.148 24.29 119.408 24.851C119.669 25.412 120.041 25.861 120.525 26.198C121.027 26.516 121.613 26.675 122.283 26.675C122.952 26.675 123.529 26.515 124.012 26.198C124.499 25.8586 124.885 25.3931 125.129 24.851C125.408 24.29 125.547 23.654 125.547 22.943C125.547 22.233 125.408 21.597 125.129 21.036C124.869 20.456 124.497 20.006 124.012 19.689C123.529 19.352 122.952 19.184 122.283 19.184ZM108.036 30.153V15.761H112.39V30.153H108.036ZM110.213 14.134C109.524 14.134 108.929 13.882 108.427 13.377C107.925 12.872 107.673 12.273 107.673 11.581C107.673 10.889 107.925 10.291 108.427 9.786C108.929 9.262 109.524 9 110.213 9C110.901 9 111.497 9.262 111.999 9.786C112.501 10.291 112.752 10.889 112.752 11.581C112.752 12.273 112.501 12.871 111.999 13.377C111.497 13.882 110.901 14.134 110.213 14.134ZM98.5751 30.49C97.106 30.49 95.7851 30.163 94.6124 29.508C93.462 28.874 92.4993 27.9448 91.8224 26.815C91.153 25.674 90.8178 24.393 90.8178 22.971C90.8178 21.531 91.153 20.25 91.8224 19.128C92.4993 17.9982 93.462 17.069 94.6124 16.435C95.7851 15.761 97.106 15.425 98.5751 15.425C100.045 15.425 101.356 15.761 102.51 16.435C103.656 17.0646 104.611 17.9954 105.272 19.128C105.96 20.25 106.305 21.531 106.305 22.971C106.305 24.393 105.96 25.674 105.272 26.815C104.611 27.9476 103.656 28.8784 102.51 29.508C101.338 30.163 100.026 30.49 98.5751 30.49ZM98.5751 26.703C99.2634 26.703 99.8592 26.534 100.361 26.198C100.864 25.8614 101.268 25.3965 101.533 24.851C101.813 24.29 101.952 23.654 101.952 22.943C101.952 22.251 101.813 21.625 101.533 21.063C101.268 20.5179 100.864 20.0533 100.361 19.717C99.8592 19.38 99.2634 19.212 98.5751 19.212C97.8868 19.212 97.282 19.38 96.7618 19.717C96.2591 20.0537 95.8545 20.5185 95.5891 21.064C95.3049 21.649 95.1618 22.293 95.1714 22.944C95.1714 23.654 95.3106 24.29 95.5891 24.851C95.8545 25.3964 96.2592 25.8613 96.7618 26.198C97.282 26.534 97.8868 26.703 98.5751 26.703ZM76.7613 35.849V32.117H83.9039C84.1834 32.117 84.4162 32.024 84.6022 31.837C84.6929 31.7564 84.7648 31.6568 84.8129 31.5452C84.8611 31.4335 84.8842 31.3126 84.8807 31.191V28.021H84.7971C84.4438 28.4341 84.0409 28.8016 83.5976 29.115C83.1878 29.415 82.7223 29.639 82.2021 29.789C81.6484 29.9454 81.0753 30.0208 80.5002 30.013C79.235 30.013 78.1001 29.713 77.0955 29.115C76.1098 28.498 75.328 27.647 74.7512 26.562C74.1941 25.478 73.9146 24.243 73.9146 22.859C73.9146 21.494 74.2031 20.25 74.78 19.128C75.3748 18.006 76.2401 17.108 77.375 16.435C78.5089 15.761 79.8955 15.425 81.5327 15.425C83.0953 15.425 84.444 15.752 85.5789 16.407C86.7186 17.0289 87.6504 17.9751 88.2575 19.127C88.8901 20.287 89.2064 21.653 89.2064 23.224V31.64C89.2064 32.93 88.8255 33.95 88.0626 34.698C87.3186 35.465 86.2861 35.848 84.9652 35.848L76.7613 35.849ZM81.5605 26.366C82.2299 26.366 82.8068 26.216 83.2912 25.917C83.7692 25.605 84.1544 25.169 84.4062 24.655C84.6708 24.114 84.8047 23.5178 84.7971 22.915C84.7971 22.242 84.6678 21.625 84.4072 21.064C84.1466 20.503 83.7746 20.063 83.2902 19.745C82.8068 19.408 82.2299 19.24 81.5595 19.24C80.909 19.24 80.3321 19.399 79.8298 19.717C79.3464 20.035 78.9744 20.465 78.7138 21.007C78.4542 21.55 78.3239 22.157 78.3239 22.831C78.3239 23.486 78.4532 24.084 78.7138 24.627C78.9744 25.15 79.3464 25.571 79.8308 25.889C80.3321 26.207 80.909 26.366 81.5605 26.366ZM65.1229 30.49C63.6538 30.49 62.3329 30.163 61.1612 29.508C60.0104 28.8742 59.0473 27.945 58.3702 26.815C57.7008 25.674 57.3656 24.393 57.3656 22.971C57.3656 21.531 57.7008 20.25 58.3702 19.128C59.0473 17.998 60.0104 17.0688 61.1612 16.435C62.3329 15.761 63.6538 15.425 65.1229 15.425C66.593 15.425 67.904 15.761 69.0578 16.435C70.204 17.0647 71.1587 17.9955 71.8199 19.128C72.5082 20.25 72.8524 21.531 72.8524 22.971C72.8524 24.393 72.5082 25.674 71.8199 26.815C71.1587 27.9475 70.204 28.8783 69.0578 29.508C67.8861 30.163 66.5741 30.49 65.1229 30.49ZM65.1229 26.703C65.8112 26.703 66.406 26.534 66.9093 26.198C67.4115 25.8611 67.8159 25.3963 68.081 24.851C68.3595 24.29 68.4988 23.654 68.4988 22.943C68.4988 22.251 68.3595 21.625 68.081 21.063C67.8158 20.518 67.4114 20.0535 66.9093 19.717C66.407 19.38 65.8112 19.212 65.1229 19.212C64.4346 19.212 63.8299 19.38 63.3097 19.717C62.807 20.0537 62.4023 20.5185 62.137 21.064C61.8528 21.649 61.7097 22.293 61.7192 22.944C61.7192 23.654 61.8585 24.29 62.137 24.851C62.4024 25.3964 62.8071 25.8613 63.3097 26.198C63.8299 26.534 64.4346 26.703 65.1229 26.703ZM51.2714 30.153C50.0619 30.153 49.0016 29.883 48.0905 29.34C47.2044 28.8234 46.4721 28.0776 45.9699 27.18C45.4676 26.282 45.2159 25.29 45.2159 24.206V10.515H49.9037V24.542C49.9037 24.992 50.0629 25.384 50.3782 25.721C50.6945 26.057 51.0844 26.226 51.5499 26.226H56.7121V30.153H51.2714Z" fill="#14424C"/>
</g>
<defs>
<clipPath id="clip0_874_194">
<rect width="186" height="40" fill="white"/>
</clipPath>
</defs>
</svg>
