<svg width="201" height="40" viewBox="0 0 201 40" fill="none" xmlns="http://www.w3.org/2000/svg">
<g clip-path="url(#clip0_874_178)">
<path fill-rule="evenodd" clip-rule="evenodd" d="M25.4292 11.6853C23.7928 10.5865 21.869 10 19.901 10V0C23.837 0 27.6847 1.17298 30.9574 3.37061C34.2301 5.56823 36.7808 8.69181 38.2871 12.3463C39.7933 16.0008 40.1875 20.0222 39.4196 23.9018C38.6517 27.7814 36.7563 31.3451 33.9731 34.1421C31.1899 36.9392 27.6439 38.844 23.7835 39.6157C19.9231 40.3874 15.9216 39.9913 12.2852 38.4776C8.64877 36.9638 5.54066 34.4004 3.35392 31.1114C1.16717 27.8224 0 23.9556 0 20H9.95049C9.95049 21.9778 10.5341 23.9112 11.6275 25.5557C12.7208 27.2002 14.2749 28.4819 16.0931 29.2388C17.9113 29.9957 19.912 30.1937 21.8422 29.8078C23.7724 29.422 25.5454 28.4696 26.9371 27.0711C28.3287 25.6725 29.2763 23.8907 29.6602 21.9509C30.0442 20.0111 29.8472 18.0004 29.0941 16.1732C28.3409 14.3459 27.0655 12.7841 25.4292 11.6853Z" fill="#007DFC"/>
<path fill-rule="evenodd" clip-rule="evenodd" d="M9.95049 5.28493e-06C9.95049 1.31322 9.69312 2.61358 9.19306 3.82684C8.693 5.04009 7.96005 6.14248 7.03606 7.07107C6.11208 7.99966 5.01514 8.73625 3.80789 9.2388C2.60064 9.74134 1.30671 10 4.34946e-07 10L0 20C2.61343 20 5.20128 19.4827 7.61579 18.4776C10.0303 17.4725 12.2242 15.9993 14.0721 14.1421C15.9201 12.285 17.386 10.0802 18.3861 7.65367C19.3862 5.22715 19.901 2.62643 19.901 0L9.95049 5.28493e-06Z" fill="#007DFC"/>
<path d="M124.997 14.4525H120.169V29.8648H124.997V14.4525Z" fill="#007DFC"/>
<path d="M120.706 11.5666C121.211 12.074 121.842 12.3277 122.599 12.3277C123.356 12.3277 123.977 12.074 124.461 11.5666C124.945 11.0381 125.187 10.4038 125.187 9.66385C125.187 8.90277 124.945 8.26849 124.461 7.76111C123.977 7.25369 123.356 7 122.599 7C121.842 7 121.211 7.25369 120.706 7.76111C120.222 8.26849 119.98 8.90277 119.98 9.66385C119.98 10.4038 120.222 11.0381 120.706 11.5666Z" fill="#007DFC"/>
<path d="M50.903 29.8648V7.47568H55.8572V25.4885H65.7342V29.8648H50.903Z" fill="#007DFC"/>
<path fill-rule="evenodd" clip-rule="evenodd" d="M74.6559 30.2136C73.0782 30.2136 71.6477 29.8648 70.3644 29.1671C69.1022 28.4483 68.1029 27.4758 67.3666 26.2495C66.6304 25.0233 66.2622 23.6491 66.2622 22.1269C66.2622 20.6047 66.6304 19.2411 67.3666 18.036C68.1029 16.8309 69.1022 15.8795 70.3644 15.1819C71.6266 14.463 73.0572 14.1036 74.6559 14.1036C76.2548 14.1036 77.6853 14.4525 78.9475 15.1501C80.2097 15.8478 81.209 16.8098 81.9453 18.036C82.6816 19.2411 83.0498 20.6047 83.0498 22.1269C83.0498 23.6491 82.6816 25.0233 81.9453 26.2495C81.209 27.4758 80.2097 28.4483 78.9475 29.1671C77.6853 29.8648 76.2548 30.2136 74.6559 30.2136ZM74.6559 25.8056C75.3502 25.8056 75.9603 25.6576 76.4862 25.3616C77.0121 25.0445 77.4118 24.6111 77.6853 24.0614C77.9798 23.4906 78.1271 22.8457 78.1271 22.1269C78.1271 21.4081 77.9798 20.7844 77.6853 20.2559C77.3907 19.7062 76.9806 19.2834 76.4546 18.9874C75.9497 18.6702 75.3502 18.5117 74.6559 18.5117C73.9828 18.5117 73.3833 18.6702 72.8573 18.9874C72.3314 19.2834 71.9212 19.7062 71.6266 20.2559C71.3321 20.8056 71.1849 21.4398 71.1849 22.1586C71.1849 22.8563 71.3321 23.4906 71.6266 24.0614C71.9212 24.6111 72.3314 25.0445 72.8573 25.3616C73.3833 25.6576 73.9828 25.8056 74.6559 25.8056Z" fill="#007DFC"/>
<path fill-rule="evenodd" clip-rule="evenodd" d="M86.8735 35.8902C88.1567 36.4821 89.6398 36.7781 91.3229 36.7781C92.9637 36.7781 94.4258 36.4504 95.709 35.795C96.9924 35.1396 98.002 34.2306 98.7384 33.0678C99.4746 31.905 99.8433 30.5308 99.8433 28.9451V14.4525H95.1094V15.488C94.7574 15.1902 94.3576 14.9402 93.9104 14.7379C93.0899 14.3362 92.1537 14.1353 91.102 14.1353C89.6925 14.1353 88.4407 14.4736 87.3468 15.1501C86.2528 15.8055 85.3904 16.7146 84.7592 17.8774C84.1281 19.0191 83.8126 20.3087 83.8126 21.7464C83.8126 23.1629 84.1281 24.4525 84.7592 25.6153C85.3904 26.7781 86.2528 27.6978 87.3468 28.3743C88.4407 29.0508 89.6925 29.3891 91.102 29.3891C92.1327 29.3891 93.0689 29.1883 93.9104 28.7866C94.318 28.592 94.6861 28.3627 95.0148 28.0986V29.072C95.0148 30.1502 94.6677 30.9853 93.9735 31.5773C93.3003 32.1693 92.3642 32.4652 91.165 32.4652C90.1974 32.4652 89.3664 32.2961 88.6721 31.9578C87.999 31.6196 87.3888 31.1227 86.8419 30.4673L83.8757 33.4483C84.6119 34.5054 85.6113 35.3194 86.8735 35.8902ZM93.7526 24.6322C93.2687 24.9282 92.6903 25.0762 92.017 25.0762C91.3439 25.0762 90.7548 24.9282 90.2499 24.6322C89.766 24.3362 89.3874 23.9345 89.1139 23.4271C88.8404 22.8986 88.7037 22.3383 88.7037 21.7464C88.7037 21.1121 88.8404 20.5413 89.1139 20.0339C89.3874 19.5265 89.7766 19.1248 90.2814 18.8288C90.7863 18.5328 91.3649 18.3848 92.017 18.3848C92.6903 18.3848 93.2687 18.5328 93.7526 18.8288C94.2575 19.1248 94.6361 19.5265 94.8886 20.0339C95.1621 20.5413 95.2988 21.1121 95.2988 21.7464C95.2988 22.3806 95.1621 22.9514 94.8886 23.4588C94.6361 23.9451 94.2575 24.3362 93.7526 24.6322Z" fill="#007DFC"/>
<path fill-rule="evenodd" clip-rule="evenodd" d="M110.004 30.2136C108.426 30.2136 106.995 29.8648 105.712 29.1671C104.449 28.4483 103.45 27.4758 102.714 26.2495C101.978 25.0233 101.609 23.6491 101.609 22.1269C101.609 20.6047 101.978 19.2411 102.714 18.036C103.45 16.8309 104.449 15.8795 105.712 15.1819C106.974 14.463 108.405 14.1036 110.004 14.1036C111.602 14.1036 113.033 14.4525 114.294 15.1501C115.557 15.8478 116.556 16.8098 117.292 18.036C118.029 19.2411 118.397 20.6047 118.397 22.1269C118.397 23.6491 118.029 25.0233 117.292 26.2495C116.556 27.4758 115.557 28.4483 114.294 29.1671C113.033 29.8648 111.602 30.2136 110.004 30.2136ZM110.004 25.8056C110.697 25.8056 111.307 25.6576 111.834 25.3616C112.359 25.0445 112.759 24.6111 113.033 24.0614C113.327 23.4906 113.474 22.8457 113.474 22.1269C113.474 21.4081 113.327 20.7844 113.033 20.2559C112.738 19.7062 112.328 19.2834 111.802 18.9874C111.297 18.6702 110.697 18.5117 110.004 18.5117C109.33 18.5117 108.73 18.6702 108.205 18.9874C107.678 19.2834 107.268 19.7062 106.974 20.2559C106.679 20.8056 106.532 21.4398 106.532 22.1586C106.532 22.8563 106.679 23.4906 106.974 24.0614C107.268 24.6111 107.678 25.0445 108.205 25.3616C108.73 25.6576 109.33 25.8056 110.004 25.8056Z" fill="#007DFC"/>
<path fill-rule="evenodd" clip-rule="evenodd" d="M136.601 30.1819C135.572 30.1819 134.624 29.9811 133.762 29.5794C133.308 29.368 132.898 29.1156 132.532 28.8222V36.3659H127.766V14.4525H132.594V15.5162C132.945 15.2283 133.334 14.9794 133.762 14.7696C134.624 14.3467 135.572 14.1353 136.601 14.1353C138.053 14.1353 139.337 14.4842 140.451 15.1819C141.588 15.8795 142.471 16.8309 143.102 18.036C143.755 19.2411 144.08 20.6153 144.08 22.1586C144.08 23.702 143.755 25.0762 143.102 26.2813C142.471 27.4864 141.588 28.4377 140.451 29.1354C139.337 29.8331 138.053 30.1819 136.601 30.1819ZM135.719 25.8056C136.412 25.8056 137.012 25.647 137.517 25.3299C138.043 25.0128 138.453 24.5793 138.748 24.0297C139.042 23.48 139.19 22.8563 139.19 22.1586C139.19 21.4398 139.042 20.8056 138.748 20.2559C138.453 19.7062 138.043 19.2834 137.517 18.9874C137.012 18.6702 136.423 18.5117 135.75 18.5117C135.077 18.5117 134.477 18.6702 133.952 18.9874C133.446 19.2834 133.047 19.7062 132.753 20.2559C132.458 20.8056 132.311 21.4398 132.311 22.1586C132.311 22.8563 132.447 23.48 132.721 24.0297C133.015 24.5793 133.425 25.0128 133.952 25.3299C134.477 25.647 135.066 25.8056 135.719 25.8056Z" fill="#007DFC"/>
<path d="M148.806 29.8965C149.689 30.1291 150.583 30.2453 151.487 30.2453C153.402 30.2453 154.916 29.8014 156.032 28.9134C157.167 28.0255 157.735 26.831 157.735 25.3299C157.735 24.3574 157.557 23.5751 157.199 22.9832C156.842 22.3701 156.379 21.8838 155.811 21.5244C155.243 21.165 154.643 20.8795 154.012 20.6681C153.381 20.4567 152.781 20.277 152.214 20.129C151.646 19.981 151.183 19.8119 150.825 19.6216C150.467 19.4313 150.288 19.1776 150.288 18.8605C150.288 18.5645 150.426 18.3425 150.698 18.1945C150.972 18.0254 151.382 17.9409 151.929 17.9409C152.497 17.9409 153.075 18.0571 153.664 18.2897C154.274 18.5222 154.822 18.924 155.305 19.4948L158.051 16.7041C157.357 15.8161 156.453 15.1501 155.337 14.7062C154.244 14.2411 153.045 14.0085 151.74 14.0085C150.499 14.0085 149.416 14.2199 148.49 14.6427C147.564 15.0656 146.848 15.647 146.344 16.3869C145.839 17.1057 145.587 17.962 145.587 18.9557C145.587 19.8859 145.766 20.6576 146.123 21.2707C146.48 21.8626 146.944 22.3278 147.511 22.666C148.079 23.0043 148.679 23.2686 149.31 23.4588C149.941 23.6491 150.541 23.8288 151.109 23.998C151.676 24.146 152.14 24.3257 152.497 24.5371C152.876 24.7274 153.065 25.0128 153.065 25.3933C153.065 25.6893 152.907 25.9218 152.592 26.091C152.297 26.2601 151.866 26.3447 151.298 26.3447C150.477 26.3447 149.72 26.1967 149.027 25.9007C148.332 25.5836 147.732 25.1502 147.228 24.6005L144.482 27.3912C145.009 27.962 145.639 28.4695 146.376 28.9134C147.133 29.3362 147.943 29.6639 148.806 29.8965Z" fill="#007DFC"/>
<path d="M166.539 30.2136C165.13 30.2136 163.879 29.9282 162.785 29.3574C161.711 28.7654 160.871 27.962 160.261 26.9472C159.65 25.9113 159.345 24.7274 159.345 23.3954V14.4525H164.173V23.332C164.173 23.8605 164.257 24.3151 164.426 24.6956C164.615 25.0762 164.889 25.3722 165.246 25.5836C165.604 25.795 166.035 25.9007 166.539 25.9007C167.255 25.9007 167.823 25.6787 168.244 25.2347C168.665 24.7696 168.875 24.1354 168.875 23.332V14.4525H173.703V23.3637C173.703 24.7168 173.398 25.9113 172.787 26.9472C172.177 27.962 171.337 28.7654 170.263 29.3574C169.19 29.9282 167.949 30.2136 166.539 30.2136Z" fill="#007DFC"/>
<path d="M180.931 14.4525H176.103V29.8648H180.931V20.8584C180.931 20.3299 181.036 19.8859 181.246 19.5265C181.478 19.1671 181.784 18.8922 182.162 18.702C182.541 18.4905 182.972 18.3848 183.455 18.3848C184.15 18.3848 184.728 18.6068 185.191 19.0508C185.675 19.4736 185.917 20.0762 185.917 20.8584V29.8648H190.745V20.8584C190.745 20.3299 190.851 19.8859 191.06 19.5265C191.292 19.1671 191.597 18.8922 191.976 18.702C192.354 18.4905 192.786 18.3848 193.269 18.3848C193.964 18.3848 194.542 18.6068 195.005 19.0508C195.488 19.4736 195.73 20.0762 195.73 20.8584V29.8648H200.559V20.3193C200.559 19.0297 200.286 17.9303 199.738 17.0212C199.212 16.0909 198.487 15.3827 197.561 14.8965C196.657 14.389 195.615 14.1353 194.437 14.1353C193.238 14.1353 192.154 14.3996 191.187 14.9282C190.558 15.2649 190.009 15.6995 189.538 16.2319C189.099 15.675 188.566 15.2193 187.936 14.8647C187.095 14.3785 186.138 14.1353 185.065 14.1353C183.929 14.1353 182.909 14.3785 182.005 14.8647C181.611 15.067 181.253 15.3093 180.931 15.5916V14.4525Z" fill="#007DFC"/>
</g>
<defs>
<clipPath id="clip0_874_178">
<rect width="201" height="40" fill="white"/>
</clipPath>
</defs>
</svg>
