<svg width="232" height="40" viewBox="0 0 232 40" fill="none" xmlns="http://www.w3.org/2000/svg">
<g clip-path="url(#clip0_874_1732)">
<path d="M39.0611 39.8954V0.870972H18.0098L0.0694669 18.8264L0.069458 39.8954H39.0611Z" fill="#2F2722"/>
<path fill-rule="evenodd" clip-rule="evenodd" d="M18.8932 26.7652V38.5498L10.826 38.5497V23.4209L22.6006 11.6363H37.7168V19.7103H25.9422L18.8932 26.7652Z" fill="#D62727"/>
<path fill-rule="evenodd" clip-rule="evenodd" d="M9.4813 22.7282V38.5498L1.41406 38.5497L1.41407 19.3838L18.5669 2.21667H37.7166V10.2907H21.9084L9.4813 22.7282Z" fill="#FFD43E"/>
<path fill-rule="evenodd" clip-rule="evenodd" d="M28.3046 30.8023V38.5498H20.2373V27.4579L26.6338 21.056H37.7164V29.1301H29.9754L28.3046 30.8023Z" fill="#EA721B"/>
<path d="M135.407 14.8181V32.5322H140.631V14.8181H135.407Z" fill="#2F2722"/>
<path d="M135.233 6.82928V12.4562H140.805V6.82928H135.233Z" fill="#2F2722"/>
<path fill-rule="evenodd" clip-rule="evenodd" d="M154.928 32.8796C153.233 32.8796 151.875 32.486 150.854 31.6986C150.137 31.1467 149.626 30.4524 149.321 29.616V39.6527H144.097V14.8181H149.216V17.6606C149.578 16.834 150.169 16.1528 150.993 15.6169C152.131 14.8528 153.535 14.4706 155.207 14.4706C156.809 14.4706 158.19 14.8528 159.351 15.6169C160.535 16.3579 161.441 17.4115 162.068 18.7777C162.718 20.1438 163.042 21.7532 163.042 23.6057C163.042 25.4814 162.706 27.1138 162.033 28.5031C161.359 29.8925 160.419 30.9693 159.212 31.7334C158.005 32.4976 156.577 32.8796 154.928 32.8796ZM153.465 28.7115C154.696 28.7115 155.694 28.2716 156.461 27.3917C157.227 26.5117 157.61 25.2613 157.61 23.6404C157.61 22.0195 157.215 20.7807 156.426 19.9239C155.659 19.0671 154.65 18.6387 153.396 18.6387C152.188 18.6387 151.19 19.0787 150.4 19.9586C149.634 20.8154 149.251 22.0543 149.251 23.6751C149.251 25.296 149.634 26.5464 150.4 27.4263C151.19 28.2832 152.212 28.7115 153.465 28.7115Z" fill="#2F2722"/>
<path d="M166.346 31.3166C167.878 32.3586 169.945 32.8796 172.546 32.8796C175.029 32.8796 176.945 32.4049 178.291 31.4555C179.662 30.4829 180.346 29.1283 180.346 27.3917C180.346 26.0255 179.882 24.8446 178.953 23.8488C178.047 22.83 176.701 22.1353 174.913 21.7648L171.709 21.1048C170.85 20.9196 170.235 20.7111 169.864 20.4796C169.492 20.2249 169.306 19.8892 169.306 19.4724C169.306 18.9861 169.527 18.6156 169.968 18.3609C170.432 18.0829 171.129 17.9441 172.057 17.9441C173.079 17.9441 173.868 18.1062 174.426 18.4303C174.983 18.7313 175.308 19.1829 175.401 19.785H180.068C179.929 18.1178 179.162 16.821 177.769 15.8948C176.376 14.9454 174.507 14.4706 172.162 14.4706C169.794 14.4706 167.948 14.9569 166.625 15.9295C165.301 16.8788 164.64 18.2104 164.64 19.9239C164.64 21.3364 165.139 22.4942 166.137 23.3973C167.135 24.2772 168.691 24.9371 170.804 25.3771L173.66 25.9676C174.426 26.1297 174.948 26.3381 175.226 26.5928C175.528 26.8244 175.68 27.1601 175.68 27.6C175.68 28.1789 175.424 28.6304 174.913 28.9546C174.426 29.2557 173.636 29.4063 172.546 29.4063C171.338 29.4063 170.385 29.2094 169.689 28.8157C169.016 28.3989 168.621 27.7969 168.505 27.0096H163.839C163.978 28.8389 164.814 30.2745 166.346 31.3166Z" fill="#2F2722"/>
<path d="M202.885 14.8181H208.005V18.0507C208.554 17.0742 209.275 16.2744 210.164 15.6517C211.279 14.8643 212.613 14.4706 214.169 14.4706C216.026 14.4706 217.466 14.9917 218.487 16.0338C219.034 16.5793 219.438 17.1979 219.699 17.8895C220.244 16.9858 220.955 16.2398 221.831 15.6517C222.992 14.8643 224.385 14.4706 226.01 14.4706C227.937 14.4706 229.411 15.0148 230.433 16.1031C231.478 17.1684 232 18.5693 232 20.306V32.5322H226.776V21.2784C226.776 20.3754 226.532 19.7155 226.045 19.2986C225.58 18.8587 224.919 18.6387 224.059 18.6387C223.317 18.6387 222.632 18.8124 222.005 19.1598C221.401 19.4839 220.925 19.9586 220.577 20.5838C220.228 21.1859 220.055 21.9037 220.055 22.7374V32.5322H214.831V21.2784C214.831 20.3754 214.587 19.7155 214.099 19.2986C213.635 18.8587 212.973 18.6387 212.114 18.6387C211.372 18.6387 210.686 18.8124 210.059 19.1598C209.456 19.4839 208.98 19.9586 208.631 20.5838C208.283 21.1859 208.109 21.9037 208.109 22.7374V32.5322H202.885V14.8181Z" fill="#2F2722"/>
<path d="M188.038 32.8795C186.784 32.8795 185.704 32.6133 184.799 32.0807C183.917 31.5249 183.244 30.7955 182.779 29.8925C182.315 28.9661 182.083 27.9358 182.083 26.8011V14.8179H187.307V25.7938C187.307 26.7664 187.551 27.4958 188.038 27.982C188.525 28.4683 189.211 28.7114 190.093 28.7114C190.882 28.7114 191.578 28.5262 192.182 28.1557C192.786 27.7852 193.262 27.2758 193.61 26.6274C193.981 25.956 194.167 25.1918 194.167 24.335V14.8179H199.391V32.5322H194.272V29.2868C193.718 30.2525 192.987 31.0565 192.078 31.6986C190.963 32.4858 189.617 32.8795 188.038 32.8795Z" fill="#2F2722"/>
<path fill-rule="evenodd" clip-rule="evenodd" d="M123.581 32.8796C121.63 32.8796 119.913 32.4976 118.427 31.7334C116.964 30.9461 115.815 29.8578 114.979 28.4684C114.166 27.0559 113.76 25.4349 113.76 23.6057C113.76 21.7764 114.166 20.1786 114.979 18.8124C115.815 17.4462 116.964 16.3811 118.427 15.6169C119.913 14.8528 121.63 14.4706 123.581 14.4706C125.555 14.4706 127.272 14.8528 128.736 15.6169C130.221 16.3811 131.37 17.4462 132.183 18.8124C132.995 20.1786 133.402 21.7764 133.402 23.6057C133.402 25.4349 132.984 27.0559 132.148 28.4684C131.335 29.8578 130.186 30.9461 128.7 31.7334C127.238 32.4976 125.531 32.8796 123.581 32.8796ZM123.581 28.781C124.394 28.781 125.125 28.5726 125.775 28.1558C126.449 27.7389 126.983 27.1485 127.377 26.3843C127.772 25.5971 127.969 24.6592 127.969 23.5709C127.969 21.9732 127.54 20.746 126.681 19.8892C125.844 19.0093 124.812 18.5693 123.581 18.5693C122.351 18.5693 121.306 19.0093 120.447 19.8892C119.611 20.7691 119.193 21.9963 119.193 23.5709C119.193 24.6592 119.39 25.5971 119.785 26.3843C120.18 27.1485 120.702 27.7389 121.353 28.1558C122.025 28.5726 122.769 28.781 123.581 28.781Z" fill="#2F2722"/>
<path fill-rule="evenodd" clip-rule="evenodd" d="M96.1405 38.437C97.6963 39.479 99.7044 40 102.166 40C105.114 40 107.435 39.259 109.131 37.7771C110.826 36.3183 111.673 34.3152 111.673 31.7681V14.8181H106.553V17.8475C106.244 16.9602 105.699 16.2283 104.917 15.6517C103.872 14.8643 102.514 14.4706 100.842 14.4706C99.217 14.4706 97.7889 14.8412 96.5584 15.5822C95.3511 16.3231 94.4108 17.3652 93.7374 18.7082C93.0642 20.0513 92.7275 21.6259 92.7275 23.432C92.7275 25.215 93.0525 26.7664 93.7027 28.0863C94.3527 29.4063 95.2582 30.4367 96.4191 31.1776C97.6028 31.8954 98.985 32.2543 100.563 32.2543C102.212 32.2543 103.593 31.8839 104.708 31.1429C105.526 30.5819 106.107 29.8773 106.449 29.0292V31.8376C106.449 33.1111 106.089 34.049 105.37 34.651C104.65 35.2531 103.5 35.5542 101.922 35.5542C100.97 35.5542 100.18 35.4383 99.5533 35.2067C98.9499 34.9752 98.5551 34.6394 98.3689 34.1995H93.424C93.7027 35.9824 94.6081 37.395 96.1405 38.437ZM105.37 27.0096C104.604 27.8432 103.605 28.26 102.374 28.26C101.121 28.26 100.099 27.8432 99.3096 27.0096C98.5434 26.176 98.1603 24.9719 98.1603 23.3973C98.1603 21.8226 98.5434 20.607 99.3096 19.7502C100.099 18.8935 101.097 18.4651 102.305 18.4651C103.559 18.4651 104.569 18.8935 105.335 19.7502C106.124 20.5838 106.519 21.7879 106.519 23.3625C106.519 24.9371 106.136 26.1528 105.37 27.0096Z" fill="#2F2722"/>
<path fill-rule="evenodd" clip-rule="evenodd" d="M81.9176 32.8796C79.9673 32.8796 78.2492 32.4976 76.7633 31.7334C75.3006 30.9461 74.1513 29.8578 73.3155 28.4684C72.5029 27.0559 72.0966 25.4349 72.0966 23.6057C72.0966 21.7764 72.5029 20.1786 73.3155 18.8124C74.1513 17.4462 75.3006 16.3811 76.7633 15.6169C78.2492 14.8528 79.9673 14.4706 81.9176 14.4706C83.8911 14.4706 85.6092 14.8528 87.0719 15.6169C88.5578 16.3811 89.707 17.4462 90.5196 18.8124C91.3323 20.1786 91.7386 21.7764 91.7386 23.6057C91.7386 25.4349 91.3207 27.0559 90.4848 28.4684C89.6722 29.8578 88.5229 30.9461 87.0371 31.7334C85.5743 32.4976 83.8678 32.8796 81.9176 32.8796ZM81.9176 28.781C82.7303 28.781 83.4615 28.5726 84.1116 28.1558C84.7849 27.7389 85.3189 27.1485 85.7137 26.3843C86.1083 25.5971 86.3057 24.6592 86.3057 23.5709C86.3057 21.9732 85.8762 20.746 85.0171 19.8892C84.1812 19.0093 83.1481 18.5693 81.9176 18.5693C80.6871 18.5693 79.6422 19.0093 78.7832 19.8892C77.9473 20.7691 77.5295 21.9963 77.5295 23.5709C77.5295 24.6592 77.7268 25.5971 78.1215 26.3843C78.5162 27.1485 79.0386 27.7389 79.6887 28.1558C80.362 28.5726 81.105 28.781 81.9176 28.781Z" fill="#2F2722"/>
<path d="M54.5883 7.52393V32.5322H72.0013V28.4337H59.9515V7.52393H54.5883Z" fill="#2F2722"/>
</g>
<defs>
<clipPath id="clip0_874_1732">
<rect width="232" height="40" fill="white"/>
</clipPath>
</defs>
</svg>
